<svg width="52" height="52" viewBox="0 0 52 52" fill="none" xmlns="http://www.w3.org/2000/svg">
<rect width="52" height="52" rx="8" fill="#2586BC"/>
<path d="M39.6203 12.1719C39.503 11.8203 39.2097 11.5273 38.8578 11.4102C36.9809 11 35.4559 11 33.9895 11C27.8895 11 24.1943 14.2812 21.4962 18.5H15.5135C14.575 18.5586 13.4606 19.2031 12.9914 20.082L10.1173 25.8828C10.0587 26.0586 10 26.293 10 26.4687C10 27.2891 10.5865 27.875 11.4077 27.875H16.8039L16.2173 29.1641C15.6308 30.2773 16.4519 31.2148 16.5693 31.332L19.6779 34.4375C19.7952 34.5547 20.7337 35.375 21.8481 34.7891L23.0799 34.2031V39.5937C23.1385 40.4141 23.7251 41 24.4876 41C24.7222 41 24.9568 40.9414 25.1328 40.8828L30.9395 38.0117C31.7607 37.543 32.4645 36.4297 32.4645 35.4922V29.5156C36.7463 26.7617 39.9722 23.1289 39.9722 17.0352C40.0309 15.5703 40.0309 14.0469 39.6203 12.1719ZM12.1115 26L14.6923 20.9023C14.8683 20.6094 15.2202 20.4336 15.5135 20.375H20.5577C19.7366 22.0742 18.6808 24.125 17.7423 26H12.1115ZM30.5876 35.4922C30.5876 35.7852 30.353 36.1953 30.0597 36.3125L24.9568 38.832V33.2656C26.8337 32.3281 28.9453 31.2734 30.5876 30.4531V35.4922ZM31.4674 27.9336C29.1212 29.1055 23.4904 31.918 21.027 33.1484L17.8596 29.9844C19.0914 27.5234 21.9068 21.8398 23.0212 19.5547C26.0126 14.9258 29.3558 12.875 33.9895 12.875C35.2213 12.875 36.453 12.875 37.8607 13.168C38.154 14.6328 38.154 15.8047 38.0953 17.0352C38.0953 21.6641 36.0424 25.0039 31.4674 27.9336ZM31.526 16.2148C29.7664 16.2148 28.2414 17.6797 28.2414 19.4961C28.2414 21.2539 29.7664 22.7773 31.526 22.7773C33.3443 22.7773 34.8107 21.2539 34.8107 19.4961C34.8107 17.6797 33.3443 16.2148 31.526 16.2148ZM31.526 20.9023C30.7635 20.9023 30.1184 20.2578 30.1184 19.4961C30.1184 18.6758 30.7635 18.0898 31.526 18.0898C32.3472 18.0898 32.9337 18.6758 32.9337 19.4961C32.9337 20.2578 32.3472 20.9023 31.526 20.9023Z" fill="white"/>
</svg>
